<?xml version="1.0" encoding="UTF-8"?>
<svg version="1.1" xmlns="http://www.w3.org/2000/svg" width="32" height="32">
<path d="M0 0 C4.39702396 2.2307903 7.19804851 5.42072878 9 10 C9.66360439 15.54032503 9.75573895 20.43254144 7.3125 25.5 C1.56321512 31.71544311 1.56321512 31.71544311 -3.3046875 32.6015625 C-14.13240577 32.67264161 -14.13240577 32.67264161 -18.25 29.25 C-22.2046502 25.21381062 -23.29123687 21.68305359 -23.3125 16.0625 C-23.32925781 15.04285156 -23.34601562 14.02320313 -23.36328125 12.97265625 C-22.76452905 8.07318929 -20.01651808 4.02496653 -16.1328125 0.9609375 C-11.06244322 -1.32351459 -5.37092458 -0.89203509 0 0 Z M-18.875 9.25 C-20.36751074 12.89835958 -20.67896674 16.15252181 -20 20 C-17.77863437 24.36045847 -15.56432971 27.13277421 -11 29 C-6.17276908 29.53635899 -4.02109214 29.52017901 0.3125 27.3125 C4.4669881 23.73770791 5.82641779 21.56223989 6.4375 16.0625 C6.25994127 11.7849487 4.81013746 9.26583542 2 6 C-1.4621961 3.11483658 -4.48796884 2.46082135 -9.0078125 2.6484375 C-13.38454766 3.42080253 -16.1139496 5.93673952 -18.875 9.25 Z " fill="#000000" transform="translate(23,0)"/>
<path d="M0 0 C3.82352106 1.5577308 6.29205593 3.91595258 9 7 C9 7.99 9 8.98 9 10 C5.73045798 9.43628586 4.17424117 8.50037734 2 6 C-0.46800047 7.15173355 -2.04783565 8.04783565 -4 10 C-4.99 10 -5.98 10 -7 10 C-6.42424336 6.64749299 -5.40693737 5.06181371 -2.9375 2.75 C-2.38964844 2.22921875 -1.84179688 1.7084375 -1.27734375 1.171875 C-0.64505859 0.59179688 -0.64505859 0.59179688 0 0 Z " fill="#000000" transform="translate(15,10)"/>
</svg>
