<svg xmlns="http://www.w3.org/2000/svg" width="32" height="32"><path d="M23 0c4.397 2.23 7.198 5.42 9 10 .664 5.54.756 10.433-1.688 15.5-5.749 6.215-5.749 6.215-10.617 7.102-10.827.07-10.827.07-14.945-3.352C.795 25.214-.291 21.683-.313 16.062l-.05-3.09C.235 8.074 2.983 4.026 6.867.962 11.937-1.324 17.63-.892 23 0zM4.125 9.25C2.632 12.898 2.321 16.153 3 20c2.221 4.36 4.436 7.133 9 9 4.827.536 6.979.52 11.313-1.688 4.154-3.574 5.513-5.75 6.125-11.25C29.26 11.785 27.81 9.267 25 6c-3.462-2.885-6.488-3.54-11.008-3.352-4.377.773-7.106 3.289-9.867 6.602z"/><path d="M15 10c3.824 1.558 6.292 3.916 9 7v3c-3.27-.564-4.826-1.5-7-4-2.468 1.152-4.048 2.048-6 4H8c.576-3.353 1.593-4.938 4.063-7.25l1.66-1.578L15 10z"/></svg>